<svg width="598" height="407" viewBox="0 0 598 407" fill="none" xmlns="http://www.w3.org/2000/svg">
<path d="M281 86C233.5 117 207.812 149.44 177 196C154.5 230 152 255 129 288L213 261C230.563 254.925 242.312 251.012 251.53 247.943C267.29 242.694 275.647 239.911 293 233C296.443 231.629 300.187 230.165 304.184 228.601L304.193 228.598L304.196 228.596C321.606 221.787 343.83 213.096 367 202C382.974 194.351 412.637 176.804 429.646 163.5C451.071 146.743 472.251 127.199 490.5 109.146C522.16 77.8285 545 51 545 51C545 51 523.125 79.625 492.375 112.5C475.393 130.655 455.705 150.106 435.5 166.748C419.118 180.242 388.895 197.888 373 205.5C351.052 216.01 321.593 228.043 295.5 238.5C266.739 250.026 250.611 255.526 224.904 264.294L224.893 264.297C221.466 265.466 217.869 266.693 214.049 268C188.426 276.766 163.978 284.602 142.5 291C165 301 184.152 326.009 209.5 332C237 338.5 292.296 348.895 349 332.5C428.808 309.425 457.5 290.5 489.5 265.5C545.848 221.478 577.045 141.206 585 114.5C592 91 600 29.5 596.5 0C560 11 478.5 15.5 441.5 23C394.985 32.4286 332.529 52.3702 281 86Z" fill="#6ACF3B"/>
<path d="M8 407C33.5 363 86.1 307.8 142.5 291C163.978 284.602 188.426 276.766 214.049 268C217.869 266.693 221.466 265.466 224.893 264.297L224.904 264.294C250.611 255.526 266.739 250.026 295.5 238.5C321.593 228.043 351.052 216.01 373 205.5C388.895 197.888 419.118 180.242 435.5 166.748C455.705 150.106 475.393 130.655 492.375 112.5C523.125 79.625 545 51 545 51C545 51 522.16 77.8285 490.5 109.146C472.251 127.199 451.071 146.743 429.646 163.5C412.637 176.804 382.974 194.351 367 202C343.83 213.096 321.606 221.787 304.196 228.596L304.193 228.598L304.184 228.601C300.187 230.165 296.443 231.629 293 233C275.647 239.911 267.29 242.694 251.53 247.943C242.312 251.012 230.563 254.925 213 261L129 288C90.5 297.5 37 337.5 0 401.5L8 407Z" fill="#6ACF3B"/>
<path d="M8 407C33.5 363 86.1 307.8 142.5 291C163.978 284.602 188.426 276.766 214.049 268C217.869 266.693 221.466 265.466 224.893 264.297L224.904 264.294C250.611 255.526 266.739 250.026 295.5 238.5C321.593 228.043 351.052 216.01 373 205.5C388.895 197.888 419.118 180.242 435.5 166.748C455.705 150.106 475.393 130.655 492.375 112.5C523.125 79.625 545 51 545 51C545 51 522.16 77.8285 490.5 109.146C472.251 127.199 451.071 146.743 429.646 163.5C412.637 176.804 382.974 194.351 367 202C343.83 213.096 321.606 221.787 304.196 228.596L304.193 228.598L304.184 228.601C300.187 230.165 296.443 231.629 293 233C275.647 239.911 267.29 242.694 251.53 247.943C242.312 251.012 230.563 254.925 213 261L129 288C90.5 297.5 37 337.5 0 401.5L8 407Z" fill="#439228"/>
<path d="M213 261C217 222.5 229.5 174.5 250 140.5M373 205.5C397.5 222.5 458.5 231.5 489.5 222.5M367 202C367 166.748 369 116 394 86M214.049 268C235.5 285.5 290 312.5 316.5 307M295.5 238.5C313 257.5 390.7 280.8 411.5 274M293 233C289 202 305.5 129 329 97M429.646 163.5C429.646 123 429.646 86 447 66M435.5 166.748C466 176.5 523.4 171.2 545 158" stroke="#439228" stroke-width="3" stroke-linecap="round"/>
<path d="M491.729 112.5C514.354 116 541.354 107.5 559.854 92M489.854 109.146C484.354 95.5 479.854 72.5 489.854 54" stroke="#439228" stroke-width="2" stroke-linecap="round"/>
</svg>