<svg
  width="588"
  height="550"
  viewBox="0 0 588 550"
  fill="none"
  xmlns="http://www.w3.org/2000/svg"
>
  <path
    d="M498.653 149.495C492.04 148.618 488.5 148.5 479.5 150L506.499 179.501C520.999 198.501 521.94 200.052 534.999 226.001C543.906 243.698 548.31 292.682 544.074 317.889C539.839 343.097 537.721 343.467 539.486 363.855C541.345 385.337 549.369 387.209 571.605 408.71C552.192 403.52 535.956 390.546 530.309 378.313C522.565 361.538 522.896 353.476 524.308 339.76C526.206 321.329 529.483 313.805 529.956 306.027C531.015 288.604 530.662 281.561 527.132 263.026C523.602 244.492 510.999 227.001 510.999 227.001C510.999 227.001 501.184 231.079 495.367 242.54C489.55 254.002 488.458 257.106 489.345 263.329C490.232 269.552 491.597 278.358 491.597 278.358C491.597 278.358 493.407 287.137 490.647 295.448C487.887 303.76 483.964 308.115 478.908 312.479C471.151 319.175 466.562 323.425 462.89 330.031C458.925 337.165 458.858 336.127 458.693 348.458C458.955 354.743 458.222 356.545 461.28 365.201C464.339 373.857 464.045 377.957 464.045 377.957C460.543 374.637 458.172 371.308 456.252 366.815C452.942 359.071 451.947 353.192 451.727 344.868C451.507 336.543 451.927 333.212 454.709 327.985C458.309 321.219 457.825 320.481 469.429 308.423C477.433 300.105 477.918 297.818 479.343 293.709C480.769 289.599 481.671 284.727 479.436 276.906C477.065 268.61 476.001 264.622 476.15 257.007C476.299 249.392 481.237 237.986 485.903 229.355C490.57 220.724 496.053 217.444 496.999 210.001C496.999 210.001 480.022 187.789 466.775 175.913C448.463 159.495 413.831 141.809 413.831 141.809C413.831 141.809 413.51 148.66 419.204 158.298C428.207 173.537 435.361 196.301 435.361 196.301C435.361 196.301 441.009 208.534 444.539 223.733C448.068 238.931 450.539 246.345 441.009 266.733C436.384 276.627 413.831 294.535 397.947 304.544C391.894 308.359 376.063 317.519 363.003 339.39C357.565 348.497 354.179 369.787 361.944 388.321C369.71 406.856 374.583 419.695 375.5 431.5C376.188 440.37 376.118 457.82 373.592 473.581C371.233 488.307 366.499 495.884 364.415 510.651C362.31 525.569 365.121 541.419 363.003 549.203C355.944 543.272 352.929 525.768 353 510C353.05 498.722 357.356 490.263 357.356 482.478C359.474 472.346 357.356 447.633 357.356 438.736C357.356 427.615 343.59 400.184 335.825 381.649C328.06 363.114 332.582 343.806 335.499 333.501C335.499 333.501 325.762 330.289 312.103 341.956C303.466 349.333 293.486 357.792 293.486 357.792C293.486 357.792 285.971 365.258 282.445 373.221C279.128 380.71 278.186 383.644 276.475 391.077C275.712 394.395 275.88 397.859 274.32 405.791C273.16 411.695 272.317 415.12 267.853 421.489C264.598 426.133 257.851 430.138 250.999 430.58C260.678 423.523 263.478 423.455 266.605 414.575C269.572 406.147 268.935 405.801 270.54 394.804C272.146 383.808 278.135 364.904 283.081 358.251C290.334 348.496 290.005 348.887 299.141 340.185C308.977 330.816 314.921 327.932 320.315 324.391C327.643 319.58 340.499 317.5 344.499 316.501C348.498 315.502 345.355 314.553 363.003 298.613C380.652 282.673 400.771 268.216 407.83 260.061C414.89 251.905 417.36 238.931 413.831 223.733C410.301 208.534 407.462 205.871 402.001 195.058C396.938 185.033 388.999 170 387.252 170.368C385.506 170.736 382.265 181.392 382.509 185.82C382.736 189.924 384.793 202.261 385.023 208.045C385.142 211.054 387.024 219.775 380.647 228.462C374.27 237.148 369.236 240.912 358.14 244.445C352.056 246.382 343.739 247.304 335.862 248.032L335.413 248.074C326.858 248.862 325.806 248.959 314.394 258.725C304.913 266.839 304.209 280.748 298.629 288.139C298.629 288.139 299.992 283.867 299.94 280.838C299.89 277.945 302.236 269.321 302.236 269.321C302.236 269.321 303.325 261.276 311.355 252.284C321.467 240.959 326.927 240.609 332.324 239.499C338.746 238.178 345.809 238.085 352.425 235.501C363.188 231.298 368.221 226.25 370.718 220.214C372.539 215.813 372.589 208.749 370.878 198.811C368.238 183.473 368.312 186.685 367.818 178.929C367.14 168.298 373.679 161.581 375.499 158.5C377.319 155.42 375.319 154.42 371.819 151.42C368.319 148.42 348.999 134 338.048 132.439C324.284 139.983 315.914 158.498 307.595 179.749C299.275 201 285.994 227.046 271.274 239.216C271.274 239.216 275.737 250.901 277.202 258.026C278.71 265.36 278.852 269.381 275.391 277.854C271.752 286.764 270.29 288.352 266.072 295.091C262.827 300.277 259.749 303.373 258.16 308.61C257.074 312.193 257.623 315.283 258.273 319.929C258.672 322.783 258.756 325.319 257.796 329.199C256.063 336.204 251.536 341.139 251.536 341.139C251.536 341.139 245.174 349.594 241.525 352.843C241.525 352.843 246.325 344.634 247.961 341.919C251.587 335.9 251.968 334.575 253.043 330.535C254.476 325.15 253.405 322.846 252.583 318.246C251.761 313.645 251.521 311.543 252.473 307.987C253.509 304.121 256.65 299.537 259.262 295.5C261.874 291.463 264.085 288.379 266.515 278.808C268.383 271.452 268.123 269.259 265.699 262.367C263.334 255.643 259.499 252.001 257.999 250.001C256.499 248 244.499 253.5 225.976 264.923C207.452 276.345 198.5 282.586 193.059 291.384C187.617 300.182 184.014 304.565 182.518 330.861C180.349 368.982 177.996 369.337 171.366 385.899C166.244 398.694 154.5 408.5 143.662 417.276C132.825 426.051 112.905 435.364 91.4995 442C79.0799 445.851 75.0511 447.61 61.9995 447C61.9995 447 71.9995 441.5 87.9995 434.5C104 427.5 116 418 123.639 411.347C147.617 391.766 145.447 393.28 152.122 375.536C158.304 359.105 158.141 344.841 156.904 321.494C156.904 321.494 158.499 300.5 157.999 299.5C157.499 298.5 153.594 297.65 147.499 300C141.404 302.35 137.458 306.422 135.999 310.5C134.547 314.562 132.587 323.248 130.524 332.389L130.524 332.391L130.524 332.392L130.523 332.393L130.499 332.5C128.903 339.574 127.569 341.407 123.802 346.584L123.499 347C120.869 350.617 114.632 357.224 106.499 359C98.3661 360.777 85.3221 363.849 81.3851 366.381C78.2355 368.407 71.1578 372.527 67.9993 375.5C65.2433 377.273 61.2008 382.189 57.2113 384.755C53.2218 387.321 49.5275 387.871 45.9992 387C48.3266 384.562 52.3724 383 54.4971 380.534C57.0467 377.576 65.3867 370.196 67.4993 368C70.6578 365.027 77.8496 361.026 80.9993 359C84.9363 356.468 90.1712 355.236 98.3044 353.459C106.282 351.716 111.305 345.254 114.797 340.76L114.999 340.5C121.398 332.274 120.999 327.5 121.999 321.5C123.071 315.07 126.644 304.491 129.499 301C133.999 295.5 137.999 291.5 142.999 289C148.842 286.079 150.583 285.059 155.999 283C160.577 281.26 165.999 279 166.999 277.5C167.999 276 168.614 275.364 168.614 275.364C179.85 257.774 200.503 247.03 200.503 247.03C200.503 247.03 220.382 235.507 234.288 227.235C248.193 218.962 252.274 212.291 264.029 184.7C275.784 157.109 261.072 136.879 261.072 136.879C231.03 140.054 227.872 139.772 203.517 147.557C178.555 155.536 172.019 158.939 157.632 174.988C138.912 195.87 136.807 205.015 133.277 216.506C129.748 227.998 126.218 241.343 118.806 249.869C111.987 257.713 105.746 260.99 91.2745 267.662C76.8029 274.335 67.7422 276.561 57.3903 288.421C49.6249 297.318 47.1541 300.283 41.1536 316.965C38.4466 324.49 29.8589 346.991 29.8589 346.991C28.447 335.129 33.3886 309.551 33.3886 309.551C33.3886 309.551 34.0355 293.248 47.8602 278.042C55.5182 269.619 62.4828 265.316 71.1558 260.99C85.2743 253.946 94.9886 249.461 101.511 241.343C111.041 229.48 110.792 218.849 115.629 204.273C115.629 204.273 119.5 188.5 118.564 189.818C117.628 191.137 109.212 195.801 100.48 195.015C94.1091 194.442 96.7643 194.575 84.3839 192.113C76.3629 190.517 70.4943 190.395 66.6038 191.747C61.2671 193.603 56.4168 197.507 51.5148 206.007C48.5016 211.232 47.4967 216.871 45.5567 221.971C43.9265 226.256 42.9185 230.608 32.1926 238.425C23.6764 244.631 16.858 245.316 16.858 245.316C16.858 245.316 9.39354 246.991 6.9997 246.884C4.49343 246.773 0.769043 247.763 0.769043 247.763C7.63475 243.477 19.2692 243.235 27.2477 235.849C36.8504 226.958 37.069 226.121 38.8476 219.305L38.941 218.947C40.5803 212.673 42.4379 206.051 44.8449 201.236C49.2345 192.454 53.0187 188.52 61.0643 183.627C69.1099 178.733 76.0994 180.437 78.5808 180.602C83.3502 180.918 93.3167 182.846 96.6921 183.121C100.334 183.419 105.28 182.587 110.5 181C118.283 178.634 121.246 174.129 128.692 170.855C129.5 170.5 135.748 158.307 135.748 158.307C148.72 137.606 159.783 130.799 183.398 120.496C206.341 110.487 238.627 104.457 244.813 100.478C251 96.5 289.993 79.3488 290.999 50.0639C292.005 20.7789 290.999 0.203125 290.999 0.203125H357.709C357.709 0.203125 356.179 34.1835 357.709 51.3591C359.238 68.5347 369.507 92.3799 391.241 101.032C410 108.5 420.925 111.909 440 122C448.114 126.292 460.5 135 463 136C465.5 137 471.082 134.388 477.547 134.464C487.983 134.587 493.991 134.836 504.181 136.685C514.67 138.588 519.772 140.277 526.964 147.38C534.527 154.848 535.104 156.946 539.437 163.977C542.771 169.386 543.681 173.691 548.647 177.561C552.045 180.21 556.384 181.093 562.739 182.587C566.643 183.504 569.856 184.574 573.741 187.238C580.754 192.047 582.565 198.55 582.565 198.55C582.565 198.55 586.987 208.38 587.546 213.291C587.546 213.291 581.948 205.047 580.143 202.274C576.14 196.127 574.863 195.168 570.89 192.324C565.594 188.532 561.734 188.497 555.272 187.187C548.81 185.876 545.985 185.15 542.493 182.639C538.698 179.911 536.007 174.873 533.493 170.581C530.979 166.289 529.262 162.807 519.738 156.178C512.419 151.083 510 151 498.653 149.495Z"
    fill="#7B4F0E"
  />
</svg>