<svg width="1440" height="1024" viewBox="0 0 1440 1024" fill="none" xmlns="http://www.w3.org/2000/svg">
<g clip-path="url(#clip0_217_41)">
<rect width="1440" height="1024" fill="url(#paint0_linear_217_41)"/>
<path d="M571 356.5L210.5 502.5V637.5H1034V480.5L571 356.5Z" fill="#29A4D9" stroke="#29A4D9"/>
<path d="M3 463.5V695.5L801.5 678L392.5 582.5C392.5 582.5 350 584 327 535C304 486 3 463.5 3 463.5Z" fill="#528CB6" stroke="#528CB6"/>
<path d="M1442 504L1192 214L1018 692.5L1209.5 679.5H1442V504Z" fill="#A2E2FD" stroke="#A2E2FD"/>
<path d="M840 485L431 655H1109L1191.5 557L1159 415.5L1226.5 433L1159 345.5L1191.5 213.5L927.5 532.5L840 485Z" fill="#0F78A5" stroke="#0F78A5"/>
<path d="M111.265 605.137L-2 560.667V715.5L1444 745L1441.51 697.461L1444 594.987L1335.23 551L1160.59 626.889L1094.72 594.987H887.155L828.776 575.169L702.039 626.889H413.638C413.638 626.889 286.402 606.588 271.932 594.987C257.462 583.386 226.197 596.757 208.563 612.871C190.929 628.986 117.317 603.565 111.265 605.137Z" fill="white" stroke="white"/>
<path d="M63.5 671.5L-2.5 690.5V1023.5H1446.5V702.5L1272 690.5L1298.5 671.5H970.5L732.5 690.5L830 714.5L644 690.5L548.5 714.5L505.5 690.5L465 671.5L388.5 657L111 671.5H63.5Z" fill="url(#paint1_linear_217_41)" stroke="white"/>
<path d="M117.5 791.5L92 842.5L163 893L231.5 868L470 893L632 868L685.5 827.5L584 764L404 791.5L269.5 764L117.5 791.5Z" fill="white"/>
<path d="M822.5 807L779.5 791.5L810 751L903.5 746L974.5 764L929 807H822.5Z" fill="white"/>
<path d="M1269 715.5H1119L1081 751L1124.5 776.5L1182.5 764H1269L1302 731L1269 715.5Z" fill="white"/>
<path d="M1375.5 827.5L1439 807V913.5L1335 868L1375.5 827.5Z" fill="white"/>
<path d="M117.5 791.5L92 842.5L163 893L231.5 868L470 893L632 868L685.5 827.5L584 764L404 791.5L269.5 764L117.5 791.5Z" stroke="white"/>
<path d="M822.5 807L779.5 791.5L810 751L903.5 746L974.5 764L929 807H822.5Z" stroke="white"/>
<path d="M1269 715.5H1119L1081 751L1124.5 776.5L1182.5 764H1269L1302 731L1269 715.5Z" stroke="white"/>
<path d="M1375.5 827.5L1439 807V913.5L1335 868L1375.5 827.5Z" stroke="white"/>
<path d="M163 908.47V893.213L232 868.5L470 893.5V908.5L232 882.5L163 908.47Z" fill="#6DC3F3"/>
<path d="M929 807.5V814.5H822.5V807.5H929Z" fill="#6DC3F3"/>
<path d="M1124.5 777L1080 751V759.5L1124.5 786.5L1182.5 774H1269V764.5H1182.5L1124.5 777Z" fill="#6DC3F3"/>
<path d="M1440 915.5L1334 868.5V880.5L1440 934.5V915.5Z" fill="#6DC3F3"/>
<path d="M163 908.47V893.213L232 868.5L470 893.5V908.5L232 882.5L163 908.47Z" stroke="#6DC3F3"/>
<path d="M929 807.5V814.5H822.5V807.5H929Z" stroke="#6DC3F3"/>
<path d="M1124.5 777L1080 751V759.5L1124.5 786.5L1182.5 774H1269V764.5H1182.5L1124.5 777Z" stroke="#6DC3F3"/>
<path d="M1440 915.5L1334 868.5V880.5L1440 934.5V915.5Z" stroke="#6DC3F3"/>
<path d="M631.5 885.5L470 908.5V893.5L631.5 869V885.5Z" fill="#A6DBF9" stroke="#A6DBF9"/>
<path d="M253 970C663.653 979.869 894.289 977.928 1305 970C902.975 961.413 672.035 962.109 253 970Z" fill="#8EC9FF"/>
<path d="M885.5 857C979.094 864.387 1030.87 864.388 1122 857C1029.64 852.628 977.859 853.559 885.5 857Z" fill="#8EC9FF"/>
<path d="M1056.8 901.814L1051.5 901.5C1150.5 898.213 1206 897.792 1305 901.5C1207.76 910.762 1152.48 907.485 1056.8 901.814Z" fill="#8EC9FF"/>
<path d="M253 970C663.653 979.869 894.289 977.928 1305 970C902.975 961.413 672.035 962.109 253 970Z" stroke="#8EC9FF"/>
<path d="M885.5 857C979.094 864.387 1030.87 864.388 1122 857C1029.64 852.628 977.859 853.559 885.5 857Z" stroke="#8EC9FF"/>
<path d="M1056.8 901.814L1051.5 901.5C1150.5 898.213 1206 897.792 1305 901.5C1207.76 910.762 1152.48 907.485 1056.8 901.814Z" stroke="#8EC9FF"/>
</g>
<defs>
<linearGradient id="paint0_linear_217_41" x1="720" y1="0" x2="720" y2="1024" gradientUnits="userSpaceOnUse">
<stop stop-color="#1DAEEC"/>
<stop offset="0.411458" stop-color="#1DAEEC" stop-opacity="0"/>
</linearGradient>
<linearGradient id="paint1_linear_217_41" x1="722" y1="551" x2="722" y2="1023.5" gradientUnits="userSpaceOnUse">
<stop offset="0.125" stop-color="white"/>
<stop offset="0.770833" stop-color="#2C96C4"/>
</linearGradient>
<clipPath id="clip0_217_41">
<rect width="1440" height="1024" fill="white"/>
</clipPath>
</defs>
</svg>
