<svg width="1440" height="1024" viewBox="0 0 1440 1024" fill="none" xmlns="http://www.w3.org/2000/svg">
  <g clip-path="url(#clip0_166_48)">
    <rect width="1440" height="1024" fill="url(#paint0_linear_166_48)" />
    <path d="M153.106 590.526C95.4663 656.426 0 693.5 0 693.5H1441C1441 693.5 1318.97 528.5 1252.5 528.5C1181.5 528.5 997.285 445.275 927.644 384.587C855.537 321.75 752 295 710.5 295C669 295 593.037 304.011 539 355.5C484.962 406.989 421.55 426.906 349.5 447.5C277.45 468.094 225.156 508.151 153.106 590.526Z" fill="#7BAFAD" />
    <path d="M0 693H1440V909H0V693Z" fill="#7BAFAD" />
    <path d="M155.5 736.691C105 761.031 59 753.657 0 765.851V909H1440V799.252C1440 799.252 1376.71 751.006 1346.5 751.006C1264.5 751.006 1256.5 562.261 1174 533.101C1091.5 503.941 1082.5 442.687 1045.5 433.427C991.78 419.982 965.638 505.752 907 515.075C831.073 527.145 796 453.506 699.5 456.755C636.5 458.875 570.185 508.77 521 562.261C482 604.676 337.5 580.817 277 613.689C215.904 646.884 206 712.351 155.5 736.691Z" fill="#569A9B" />
    <path d="M156.5 785.5C97 780.542 39.5 820.5 0 850V909H1440V801C1440 801 1410.7 767.7 1375.5 772.5C1331.5 778.5 1318.5 672.5 1272 660C1224.19 647.147 1097.5 705.5 1037 717C976.5 728.501 863 738.682 788 730.5C706 721.554 588.283 629 518 629C468.5 629 366.5 710.5 333 732C299.5 753.5 248.5 793.167 156.5 785.5Z" fill="#1C4444" />
    <path d="M0 909H1440V1024H0V909Z" fill="#1C4444" />
    <path d="M28.4194 892.094C47.0352 894.527 59.176 893.716 77.7918 888.039C48.654 918.047 47.8446 926.968 6.56598 948.055C26.8006 952.11 46.2258 948.866 59.176 944.811C17.8974 987.795 27.61 974.819 -25 999.96C13.8504 1005.64 6.56598 1013.75 46.2258 1008.07H179.774C219.434 1013.75 212.15 1005.64 251 999.96C198.39 974.819 208.103 987.795 166.824 944.811C179.774 948.866 199.199 952.11 219.434 948.055C178.155 926.968 177.346 918.047 148.208 888.039C166.824 893.716 178.965 894.527 197.581 892.094C159.323 871.479 166.758 872.439 137.686 844.244C151.446 849.921 161.158 849.921 179.774 849.921C151.93 831.25 147.268 825.221 127.164 798.827C134.449 801.26 137.686 803.693 148.208 803.693C122.308 776.929 120.689 760.709 113.405 738C106.12 760.709 103.692 776.929 77.7918 803.693C88.3138 803.693 91.5513 801.26 98.8358 798.827C78.7319 825.221 74.0696 831.25 46.2258 849.921C64.8416 849.921 74.5543 849.921 88.3138 844.244C59.242 872.439 66.6767 871.479 28.4194 892.094Z" fill="#153132" />
    <path d="M156.355 828.88C181.918 832.225 198.589 831.11 224.152 823.304C184.141 864.565 183.029 876.832 126.346 905.826C154.132 911.401 180.806 906.941 198.589 901.365C141.906 960.468 155.243 942.626 83 977.196C136.349 985.002 126.346 996.153 180.806 988.347H364.194C418.654 996.153 408.651 985.002 462 977.196C389.757 942.626 403.094 960.468 346.411 901.365C364.194 906.941 390.868 911.401 418.654 905.826C361.971 876.832 360.859 864.565 320.848 823.304C346.411 831.11 363.082 832.225 388.645 828.88C336.111 800.534 346.32 801.854 306.399 763.086C325.293 770.892 338.631 770.892 364.194 770.892C325.959 745.218 319.557 736.929 291.95 700.637C301.953 703.982 306.399 707.328 320.848 707.328C285.282 670.528 283.059 648.224 273.056 617C263.053 648.224 259.718 670.528 224.152 707.328C238.601 707.328 243.047 703.982 253.05 700.637C225.443 736.929 219.041 745.218 180.806 770.892C206.369 770.892 219.707 770.892 238.601 763.086C198.68 801.854 208.889 800.534 156.355 828.88Z" fill="#153132" />
    <path d="M1206.84 858.519C1229.43 861.48 1244.17 860.493 1266.77 853.585C1231.4 890.101 1230.42 900.958 1180.31 926.618C1204.87 931.553 1228.45 927.605 1244.17 922.671C1194.07 974.979 1205.86 959.188 1142 989.783C1189.16 996.691 1180.31 1006.56 1228.45 999.652H1390.55C1438.69 1006.56 1429.84 996.691 1477 989.783C1413.14 959.188 1424.93 974.979 1374.83 922.671C1390.55 927.605 1414.13 931.553 1438.69 926.618C1388.58 900.958 1387.6 890.101 1352.23 853.585C1374.83 860.493 1389.57 861.48 1412.16 858.519C1365.73 833.433 1374.75 834.601 1339.46 800.29C1356.16 807.198 1367.95 807.198 1390.55 807.198C1356.75 784.476 1351.09 777.141 1326.69 745.021C1335.53 747.982 1339.46 750.942 1352.23 750.942C1320.8 718.373 1318.83 698.634 1309.99 671C1301.15 698.634 1298.2 718.373 1266.77 750.942C1279.54 750.942 1283.47 747.982 1292.31 745.021C1267.91 777.141 1262.25 784.476 1228.45 807.198C1251.05 807.198 1262.84 807.198 1279.54 800.29C1244.25 834.601 1253.27 833.433 1206.84 858.519Z" fill="#153132" />
    <path d="M1058.1 889.863C1075.9 892.197 1087.52 891.419 1105.32 885.972C1077.45 914.766 1076.68 923.326 1037.19 943.56C1056.55 947.451 1075.13 944.338 1087.52 940.447C1048.03 981.693 1057.32 969.242 1007 993.366C1044.16 998.814 1037.19 1006.6 1075.13 1001.15H1202.87C1240.81 1006.6 1233.84 998.814 1271 993.366C1220.68 969.242 1229.97 981.693 1190.48 940.447C1202.87 944.338 1221.45 947.451 1240.81 943.56C1201.32 923.326 1200.55 914.766 1172.68 885.972C1190.48 891.419 1202.1 892.197 1219.9 889.863C1183.31 870.081 1190.42 871.002 1162.61 843.947C1175.77 849.395 1185.06 849.395 1202.87 849.395C1176.24 831.478 1171.78 825.694 1152.55 800.367C1159.52 802.701 1162.61 805.036 1172.68 805.036C1147.9 779.355 1146.35 763.79 1139.39 742C1132.42 763.79 1130.1 779.355 1105.32 805.036C1115.39 805.036 1118.48 802.701 1125.45 800.367C1106.22 825.694 1101.76 831.478 1075.13 849.395C1092.94 849.395 1102.23 849.395 1115.39 843.947C1087.58 871.002 1094.69 870.081 1058.1 889.863Z" fill="#153132" />
    <path d="M918.258 866.824C938.56 869.49 951.801 868.601 972.103 862.381C940.326 895.258 939.443 905.032 894.425 928.134C916.493 932.576 937.677 929.022 951.801 924.58C906.783 971.673 917.375 957.456 860 985.001C902.369 991.221 894.425 1000.11 937.677 993.886H1083.32C1126.57 1000.11 1118.63 991.221 1161 985.001C1103.62 957.456 1114.22 971.673 1069.2 924.58C1083.32 929.022 1104.51 932.576 1126.57 928.134C1081.56 905.032 1080.67 895.258 1048.9 862.381C1069.2 868.601 1082.44 869.49 1102.74 866.824C1061.02 844.238 1069.13 845.29 1037.42 814.4C1052.43 820.62 1063.02 820.62 1083.32 820.62C1052.96 800.163 1047.87 793.559 1025.95 764.641C1033.89 767.307 1037.42 769.972 1048.9 769.972C1020.65 740.65 1018.89 722.879 1010.94 698C1003 722.879 1000.35 740.65 972.103 769.972C983.578 769.972 987.109 767.307 995.053 764.641C973.128 793.559 968.043 800.163 937.677 820.62C957.979 820.62 968.572 820.62 983.578 814.4C951.873 845.29 959.981 844.238 918.258 866.824Z" fill="#153132" />
    <path d="M202.729 1023.55C202.729 995.517 222.796 935.932 224.961 934.087C228.099 956.386 238.647 970.029 244.294 973.72C249.001 946.807 260.295 910.976 262.177 912.821C264.531 915.128 265.204 980.486 269.91 980.486C278.539 950.498 283.163 917.259 290.693 919.104C282.849 949.861 309.644 971.962 313.41 975.653C318.257 945.685 321.054 929.563 320.082 922.755L319.693 921.037C319.859 921.526 319.988 922.097 320.082 922.755L338.704 1004.94C351.254 973.417 360.292 933.169 363.675 930.51C369.951 963.574 372.858 997.934 376.956 1023.55H202.729Z" fill="#21585A" />
    <path d="M503.839 940.371C501.674 942.216 478.223 995.518 478.223 1023.55H662.852C658.754 997.934 655.847 963.574 649.571 930.511C646.188 933.169 625.299 962.011 612.748 993.536L596.637 919.104C591.804 927.321 593.658 949.246 578.754 980.003C574.989 976.312 568.604 944.72 560.871 913.788C553.621 944.72 545.888 952.599 542.988 982.613C538.282 982.613 528.343 924.061 525.589 925.871C522.205 928.094 520.145 957.924 515.439 984.836C509.791 981.145 506.977 962.669 503.839 940.371Z" fill="#21585A" />
    <path d="M653.669 1023.55C653.669 995.518 671.804 942.699 673.969 940.854C677.107 963.153 691.521 991.827 697.169 995.518C701.875 968.605 702.485 933.604 705.385 924.421C706.377 921.279 717.595 985.803 722.301 985.803C730.93 955.815 731.001 964.537 737.284 946.17C745.984 971.787 747.052 991.827 750.817 995.518C764.794 966.674 768.664 932.188 767.539 923.443L767.25 922.052C767.368 922.397 767.464 922.863 767.539 923.443L781.267 989.669C793.817 958.144 820.416 943.512 823.799 940.854C823.799 971.787 824.283 997.934 828.381 1023.55H653.669Z" fill="#21585A" />
    <path d="M950.913 1023.55C950.913 995.518 945.848 944.632 948.013 942.787C951.151 965.086 969.915 994.243 975.563 997.934C980.269 971.022 977.063 924.025 978.946 925.871C981.299 928.178 992.122 984.836 996.829 984.836C1005.46 954.848 1001.18 928.336 1006.01 919.104C1015.2 947.62 1022.55 991.827 1026.31 995.518C1040.4 966.437 1054.69 931.621 1054.62 923.233L1054.46 922.052C1054.56 922.354 1054.61 922.75 1054.62 923.233L1065.62 1004.94C1078.17 973.417 1087.21 933.169 1090.59 930.511C1096.87 963.574 1099.78 997.934 1103.87 1023.55H950.913Z" fill="#21585A" />
    <path d="M1258.31 1023.55C1258.31 995.518 1262.91 935.933 1265.07 934.087C1268.21 956.386 1277.31 994.243 1282.96 997.934C1287.66 971.022 1292.19 944.325 1294.07 946.17C1296.43 948.477 1300 1001.8 1304.71 1001.8C1313.33 971.813 1308.57 963.522 1316.31 939.404C1323.97 969.55 1332.22 977.627 1336.03 981.359L1336.12 981.453C1350.03 952.748 1359.4 922.245 1359.06 913.802L1358.84 912.338C1358.96 912.707 1359.04 913.198 1359.06 913.802L1373.02 1004.94C1385.57 973.417 1398.95 938.679 1402.34 936.021C1408.61 969.084 1407.17 997.934 1411.27 1023.55H1258.31Z" fill="#21585A" />
    <path d="M223.259 1023.55C223.259 995.518 219.393 957.199 217.228 955.353C214.09 977.652 204.258 994.243 198.61 997.934C193.903 971.022 192.528 929.342 190.645 931.187C188.292 933.494 185.685 985.32 180.979 985.32C172.35 955.332 171.11 917.259 163.579 919.104C171.423 949.861 155.261 981.629 151.496 985.32C137.639 956.723 120.45 931.397 119.616 923.53L119.716 922.052C119.584 922.441 119.553 922.936 119.616 923.53L114.764 995.469C102.213 963.944 105.097 933.846 101.714 931.187C95.4385 964.251 74.3957 997.934 70.2977 1023.55H223.259Z" fill="#21585A" />
    <path d="M484.99 1023.55C484.99 995.517 476.29 943.182 474.125 941.337C470.987 963.636 460.671 985.012 455.023 988.703C450.317 961.791 444.571 925.524 442.688 927.369C440.335 929.676 434.724 974.686 432.307 985.803C423.679 955.815 422.641 938.921 414.424 933.604C407.658 961.589 413.356 982.112 409.591 985.803C395.688 957.112 377.59 931.292 376.749 923.459L376.844 922.052C376.718 922.424 376.689 922.895 376.749 923.459L371.892 995.469C359.341 963.944 350.142 924.711 346.759 922.052C340.484 955.116 331.524 997.934 327.426 1023.55H484.99Z" fill="#21585A" />
    <path d="M936.645 1023.55C936.645 995.517 924.691 942.352 922.525 940.507C919.388 962.805 917.643 994.243 911.995 997.934C907.289 971.022 900.828 925.524 898.946 927.369C896.592 929.676 894.952 1001.8 890.246 1001.8C881.617 971.813 868.777 920.207 861.246 922.052C869.091 952.809 865.012 991.827 861.246 995.517C847.155 966.437 832.867 931.621 832.942 923.233L833.102 922.052C832.999 922.354 832.947 922.75 832.942 923.233L821.936 1004.94C809.385 973.417 800.348 933.169 796.964 930.511C790.689 963.574 787.781 997.934 783.683 1023.55H936.645Z" fill="#21585A" />
    <path d="M992.71 1023.55C992.71 995.518 980.756 942.352 978.591 940.507C975.453 962.805 973.709 994.243 968.061 997.934C963.354 971.022 962.946 934.658 961.063 936.504C958.71 938.811 943.537 978.07 938.83 978.07C930.201 948.082 936.897 946.702 932.064 927.369C921.914 948.635 911.179 974.379 907.414 978.07C894.307 951.021 887.845 928.73 887.758 919.983L888.081 917.171C887.854 917.838 887.746 918.783 887.758 919.983L878.001 1004.94C865.451 973.417 848.932 924.179 845.549 921.521C839.273 954.584 843.847 997.934 839.749 1023.55H992.71Z" fill="#21585A" />
    <path d="M1180.24 1023.55C1180.24 995.518 1168.29 942.352 1166.12 940.507C1162.98 962.805 1161.24 994.243 1155.59 997.934C1150.88 971.022 1144.42 925.524 1142.54 927.369C1140.19 929.676 1138.55 1001.8 1133.84 1001.8C1125.21 971.813 1121.81 904.692 1114.28 906.538C1103.9 935.972 1092.91 982.112 1089.14 985.803C1074.88 956.362 1071.14 929.944 1072.5 922.882L1072.71 922.052C1072.63 922.289 1072.56 922.566 1072.5 922.882L1055.79 988.22C1043.24 956.694 1030.66 954.629 1027.28 951.97C1021 985.034 1031.38 997.934 1027.28 1023.55H1180.24Z" fill="#21585A" />
    <path d="M1250.57 955.837C1252.74 957.682 1271.1 995.518 1271.1 1023.55H1118.14C1122.24 997.934 1125.15 963.574 1131.42 930.511C1134.81 933.169 1143.85 973.417 1156.4 1004.94L1167.56 922.052C1178.08 930.511 1180.57 945.863 1195.47 976.62C1199.24 972.929 1214.92 943.095 1207.07 912.338C1214.6 910.492 1216.08 971.813 1224.71 1001.8C1229.41 1001.8 1231.05 929.676 1233.41 927.369C1235.29 925.524 1241.75 971.022 1246.45 997.934C1252.1 994.243 1247.44 978.136 1250.57 955.837Z" fill="#21585A" />
    <path d="M1477 1023.55C1477 995.518 1465.05 942.352 1462.88 940.507C1459.74 962.805 1458 994.243 1452.35 997.934C1447.64 971.022 1441.18 925.524 1439.3 927.369C1436.95 929.676 1435.31 1001.8 1430.6 1001.8C1421.97 971.813 1419.05 920.159 1411.52 922.004C1419.36 952.761 1405.37 991.827 1401.6 995.518C1387.41 966.224 1375.97 933.259 1376.54 925.406L1376.72 924.421C1376.63 924.684 1376.57 925.014 1376.54 925.406L1362.29 1004.94C1349.74 973.417 1342.41 927.079 1339.02 924.421C1332.75 957.484 1328.14 997.934 1324.04 1023.55H1477Z" fill="#21585A" />
    <path d="M115.962 1023.55C115.962 995.517 131.912 944.149 129.747 942.304C126.609 964.603 96.9599 972.929 91.3121 976.62C86.6055 949.707 80.1449 904.209 78.2623 906.054C75.9091 908.361 74.269 980.486 69.5625 980.486C60.9339 950.498 56.2815 926.837 41.7818 922.052C49.626 952.809 36.3639 990.328 32.5986 994.019C19.0056 965.968 11.855 933.826 12.1305 924.189L12.4183 922.052C12.2527 922.539 12.1571 923.259 12.1305 924.189L1.25278 1004.94C-11.2979 973.417 -20.3356 933.169 -23.7189 930.51C-29.9942 963.574 -32.9021 997.934 -37 1023.55H115.962Z" fill="#21585A" />
    <path d="M569 266.392C556.729 261.273 539.22 261.135 527.937 266.087C526.874 264.882 525.558 264.438 523.039 264.689C520.52 264.94 519.317 265.636 518.514 267.027C506.475 264.401 489.338 267.995 478.32 275.437C495.642 270.566 506.197 267.99 518.886 270.762C520.912 272.355 522.525 272.286 523.785 272.16C525.044 272.034 526.639 271.783 528.31 269.822C540.202 264.598 551.057 265.038 569 266.392Z" fill="black" fill-opacity="0.5" />
    <path d="M1036.95 377.255C1027.02 368.406 1010.52 362.555 998.238 363.547C997.628 362.061 996.529 361.211 994.066 360.626C991.603 360.04 990.239 360.304 989.025 361.356C978.505 354.941 961.135 352.737 948.29 356.171C966.252 357.227 977.069 358.241 988.156 365.009C989.55 367.175 991.098 367.637 992.329 367.93C993.56 368.223 995.149 368.507 997.37 367.2C1010.32 366.148 1020.43 370.112 1036.95 377.255Z" fill="black" fill-opacity="0.5" />
  </g>
  <defs>
    <linearGradient id="paint0_linear_166_48" x1="720" y1="0" x2="720" y2="1024" gradientUnits="userSpaceOnUse">
      <stop stop-color="#378592" />
      <stop offset="0.53125" stop-color="#CCD6C3" />
    </linearGradient>
    <clipPath id="clip0_166_48">
      <rect width="1440" height="1024" fill="white" />
    </clipPath>
  </defs>
</svg>