<svg width="1440" height="1024" viewBox="0 0 1440 1024" fill="none" xmlns="http://www.w3.org/2000/svg">
  <g clip-path="url(#clip0_218_41)">
    <rect width="1440" height="1024" fill="url(#paint0_linear_218_41)" />
    <g filter="url(#filter0_df_218_41)">
      <ellipse cx="982.5" cy="384" rx="130.5" ry="128" fill="#FDEFE0" />
    </g>
    <g filter="url(#filter1_bf_218_41)">
      <path d="M1643.07 269.023C1712.07 246.023 1722.33 216.493 1596.33 190.493C1544.86 179.872 1543.87 229.396 1486.43 229.978C1422.06 230.63 1389.43 222.478 1351.43 229.978C1305.3 239.082 1210.93 241.978 1190.43 267.978C1172.26 291.023 1228.93 297.478 1296.93 297.478C1348.93 297.478 1332.93 331.978 1392.43 331.978C1466.37 331.978 1608.79 280.451 1643.07 269.023Z" fill="#FAD2A3" fill-opacity="0.5" />
    </g>
    <g filter="url(#filter2_bf_218_41)">
      <path d="M1288.64 469.045C1357.64 446.045 1367.89 416.515 1241.89 390.515C1190.42 379.894 1188.83 363.433 1131.39 364.015C1067.02 364.667 996.704 380.252 969.394 394.515C927.716 416.281 878.64 420.5 858.14 446.5C839.97 469.545 861.64 512 929.64 512C981.64 512 951.641 498.045 1011.14 498.045C1085.07 498.045 1254.36 480.473 1288.64 469.045Z" fill="#FAD2A3" fill-opacity="0.5" />
    </g>
    <g filter="url(#filter3_bf_218_41)">
      <path d="M539.018 461.742C649 458 636 421.336 531.378 408.197C509.378 405.434 447.813 432.616 390.378 433.197C326.004 433.849 324.378 419.197 250.877 433.197C204.689 441.995 118 446.197 102.5 466.197C91.4738 480.425 75.6403 504.697 143.64 504.697C195.64 504.697 202.018 490.742 261.518 490.742C335.452 490.742 502.9 462.971 539.018 461.742Z" fill="#FAD2A3" fill-opacity="0.5" />
    </g>
    <path d="M704.5 641.638C684.9 633.238 568.333 638.138 512.5 641.638L0 825.638V1013.64H1440V858.638C1238 796.472 832.3 671.738 825.5 670.138C817 668.138 729 652.138 704.5 641.638Z" fill="#F4A66F" />
    <path d="M1392 668.509C1407.5 672.17 1440 664.251 1440 664.251V1024H0V831.541C220.833 791.271 632.57 703.744 643.5 698.842C684 680.678 746.466 683.27 797 674.644C851.525 665.338 881.459 655.037 936.5 650.064C983.5 645.817 970.481 653.693 1014.5 650.064C1058.52 646.435 1085.48 629.227 1129.5 625.624C1187.32 620.892 1212.15 644.344 1269.5 653.342C1289.5 656.48 1330 643.268 1347 649.158C1364 655.048 1372.5 663.903 1392 668.509Z" fill="#F39855" />
    <path d="M198.671 634.074C176.736 636.258 148.677 666.101 117.5 687.5C68.5157 682.163 0.938282 715.022 0 728V1024H1440V816L908.5 709.5C850 707 822.5 698.35 794 695.5C765.5 692.65 718 700.625 677 695.5C636 690.375 632.994 685.16 576.494 663.16C541.907 648.179 556.145 649.17 548.5 644C544.456 641.265 532.744 625.19 522.699 615.535C514.419 607.575 511.51 611.462 503.093 609.335C497.595 607.946 486.18 626.558 483.431 626.63C473.783 626.882 463.228 606.126 459.156 595.717L454.351 411.925C454.351 411.925 424.148 360.527 420.787 359.104C417 357.5 401.5 364.541 399.5 365C397.5 365.459 378.973 360.791 375.226 360.295C373 360 336.052 365.697 335.147 366.041C334.242 366.386 328.749 380.919 328.198 382.333C327.647 383.746 312.598 522.639 311.762 523.05C310.039 523.895 295.786 515.645 295.471 515.421C294.644 514.83 287.743 444.265 286.207 443.17C284.421 441.897 277.656 442.673 276.156 443.433C274.656 444.193 272.348 464.969 272.045 465.691C271.817 466.234 264.385 472.401 263.545 473.968C262.499 475.919 262.451 627.037 255.623 632.585C247.088 639.521 226.089 631.344 198.671 634.074Z" fill="#F1873E" />
    <path d="M1347 717C1389 716.2 1426.5 731 1440 738.5V985.5H0V744.5C2.66667 745 9.1 746.8 13.5 750C19 754 295 767.5 324.5 767.5C354 767.5 449.5 720 494 717C538.5 714 747 719.5 775 722.5C803 725.5 932 700 990 694.5C1048 689 1165 722.5 1204 738.5C1232.03 750 1294.5 718 1347 717Z" fill="#EF6236" />
    <path d="M1015.63 681.672C1016.36 683.495 1016.42 701 1016.42 701H1026.36C1026.36 701 1026.73 674.379 1027.09 673.285C1027.46 672.19 1030.56 672.576 1034.46 670.367C1037.04 668.908 1037.61 667.094 1038.51 664.168C1039.89 659.67 1039.69 658.383 1039.98 653.957C1040.35 648.487 1034.46 645.934 1033.35 652.133C1033.35 652.133 1032.62 659.427 1031.88 661.25C1030.97 663.498 1027.83 665.179 1026.36 664.532C1025.76 664.269 1026.36 640.132 1026.36 640.132C1026.36 632.076 1016.78 634.629 1016.78 640.099C1016.78 640.099 1017.15 672.257 1016.42 672.555C1015.68 672.853 1012.9 672.92 1012 666.356C1011.09 659.792 1005 658.333 1005 665.626C1005 670.935 1006.11 673.349 1007.95 676.202C1011.04 681.021 1014.82 679.681 1015.63 681.672Z" fill="#EF6236" />
    <path d="M1340.5 810.5C1374.97 805.362 1400 838 1440 797.5V954.472H0V735.5C0 735.5 100.296 744.575 132.5 735.5C176 723.241 234.53 723.595 292 735.5C362 750 352.5 776.5 407 786.5C510.193 805.435 569.318 799.642 669 786.5C760.457 774.443 826.758 811.604 919 810.5C1005.48 809.465 1037.07 775.309 1123.5 772C1216.31 768.447 1248.63 824.192 1340.5 810.5Z" fill="#D2462D" />
    <path d="M270.225 701.123C268.647 705.073 268.538 743 268.538 743H247.232C247.232 743 246.443 685.32 245.654 682.95C244.865 680.579 238.235 681.414 229.872 676.629C224.348 673.468 223.112 669.536 221.192 663.197C218.24 653.452 218.674 650.664 218.035 641.073C217.246 629.221 229.872 623.69 232.239 637.122C232.239 637.122 233.817 652.925 235.396 656.875C237.341 661.746 244.075 665.387 247.232 663.987C248.518 663.416 247.232 611.118 247.232 611.118C247.232 593.665 267.749 599.196 267.749 611.048C267.749 611.048 266.96 680.723 268.538 681.369C270.116 682.016 276.07 682.16 278.007 667.937C279.944 653.715 293 650.554 293 666.357C293 677.859 290.611 683.089 286.687 689.271C280.06 699.712 271.949 696.808 270.225 701.123Z" fill="#D2462D" />
    <path d="M1122.99 772.655L1108.74 773.725C1102.46 771.053 1098.77 769.943 1091.76 768.811C1098 767.231 1100.11 765.877 1106.38 768.365C1102.71 763.019 1100.91 764.064 1096.1 760.842C1103.33 761.602 1102.19 760.21 1107.99 763.684C1107.99 763.684 1107.91 756.758 1102.88 754.855C1108.53 756.385 1108.07 756.185 1112.58 759.756C1114.3 756.134 1113.87 752.017 1112.94 747.972C1115.18 751.285 1119.16 756.597 1119.75 759.869C1123.64 755.993 1129.82 753.871 1131.31 753.4C1131.44 753.344 1131.55 753.309 1131.64 753.298C1131.64 753.298 1131.53 753.332 1131.31 753.4C1129.68 754.14 1125.89 758.625 1125.1 761.747C1130.91 759.291 1141.51 757.822 1141.51 757.822C1141.51 757.822 1130.73 761.907 1126.79 766.832C1131.85 765.279 1143.54 766.606 1143.85 767.365C1143.41 766.686 1129.04 767.88 1122.99 772.655Z" fill="#D2462D" />
    <path d="M0 1024V837C36.5 848 87.5 881.5 147.5 881.5C224 881.5 309.5 847.5 406 847.5C502.5 847.5 540.469 922.469 651.5 894.5C717 878 835.694 855.513 980.5 894.5C1032.5 908.5 1059.5 860.5 1114.5 860.5C1198.5 860.5 1215.97 814.534 1323 804.5C1403 797 1409.5 825.5 1440 839V1024H0Z" fill="#8C2D27" />
    <path d="M395.853 785.245C399.031 793.147 399.25 869 399.25 869H442.145C442.145 869 443.734 753.64 445.323 748.9C446.912 744.159 460.26 745.828 477.098 736.257C488.219 729.936 490.707 722.073 494.574 709.393C500.517 689.904 499.643 684.328 500.929 665.146C502.517 641.442 477.098 630.38 472.332 657.244C472.332 657.244 469.154 688.85 465.977 696.751C462.059 706.492 448.502 713.773 442.147 710.973C439.558 709.833 442.145 605.237 442.145 605.237C442.146 570.33 400.839 581.392 400.839 605.096C400.839 605.096 402.427 744.446 399.25 745.739C396.073 747.032 384.085 747.319 380.186 718.875C376.286 690.43 350 684.109 350 715.714C350 738.717 354.81 749.178 362.71 761.542C376.053 782.424 392.383 776.617 395.853 785.245Z" fill="#8C2D27" />
    <path d="M1355.95 755.059C1353.39 761.469 1353.21 823 1353.21 823H1318.55C1318.55 823 1317.27 729.421 1315.98 725.576C1314.7 721.73 1303.92 723.084 1290.31 715.321C1281.33 710.193 1279.32 703.814 1276.19 693.529C1271.39 677.72 1272.1 673.196 1271.06 657.636C1269.77 638.407 1290.31 629.434 1294.16 651.226C1294.16 651.226 1296.73 676.864 1299.3 683.273C1302.46 691.175 1313.42 697.082 1318.55 694.81C1320.64 693.885 1318.55 609.038 1318.55 609.038C1318.55 580.723 1351.92 589.696 1351.92 608.924C1351.92 608.924 1350.64 721.964 1353.21 723.012C1355.78 724.061 1365.46 724.294 1368.61 701.22C1371.76 678.146 1393 673.018 1393 698.656C1393 717.316 1389.11 725.802 1382.73 735.831C1371.95 752.771 1358.76 748.06 1355.95 755.059Z" fill="#8C2D27" />
    <path d="M799.599 875.344L772.503 876.828C760.69 871.515 753.715 869.266 740.455 866.848C752.369 864.088 756.43 861.598 768.234 866.561C761.473 856.273 758.003 858.188 749.011 851.886C762.694 853.608 760.583 850.921 771.457 857.738C771.457 857.738 771.572 844.587 762.099 840.782C772.77 843.904 771.913 843.506 780.323 850.458C783.735 843.648 783.07 835.816 781.474 828.102C785.583 834.477 792.938 844.713 793.939 850.947C801.472 843.74 813.285 839.949 816.133 839.11C816.37 839.009 816.582 838.948 816.767 838.931C816.767 838.931 816.543 838.99 816.133 839.11C812.999 840.454 805.645 848.823 804.028 854.718C815.152 850.279 835.33 847.896 835.33 847.896C835.33 847.896 814.698 855.239 807.031 864.436C816.704 861.682 838.834 864.651 839.4 866.103C838.58 864.797 811.262 866.511 799.599 875.344Z" fill="#8C2D27" />
    <path d="M723.886 780.157C724.932 779.034 718.761 773.678 715.681 772.974C712.6 772.269 702.316 773.161 700.671 773.982C699.457 774.588 693.382 779.45 694.287 780.908C695.191 782.367 699.649 784.267 701.547 784.199C703.988 784.112 717.1 785.356 718.539 784.547C719.739 783.872 722.84 781.281 723.886 780.157Z" fill="#D2462D" />
    <path d="M1144.42 852.507C1145.95 850.594 1135.49 842.839 1130.51 842.096C1125.53 841.354 1109.29 844.029 1106.78 845.536C1104.93 846.647 1095.87 855.115 1097.48 857.322C1099.1 859.529 1106.41 862.003 1109.42 861.663C1113.29 861.226 1134.28 861.599 1136.46 860.137C1138.29 858.918 1142.9 854.421 1144.42 852.507Z" fill="#8C2D27" />
  </g>
  <defs>
    <filter id="filter0_df_218_41" x="846" y="250" width="273" height="268" filterUnits="userSpaceOnUse" color-interpolation-filters="sRGB">
      <feFlood flood-opacity="0" result="BackgroundImageFix" />
      <feColorMatrix in="SourceAlpha" type="matrix" values="0 0 0 0 0 0 0 0 0 0 0 0 0 0 0 0 0 0 127 0" result="hardAlpha" />
      <feMorphology radius="3" operator="dilate" in="SourceAlpha" result="effect1_dropShadow_218_41" />
      <feOffset />
      <feGaussianBlur stdDeviation="1.5" />
      <feComposite in2="hardAlpha" operator="out" />
      <feColorMatrix type="matrix" values="0 0 0 0 0.992157 0 0 0 0 0.937255 0 0 0 0 0.878431 0 0 0 0.75 0" />
      <feBlend mode="normal" in2="BackgroundImageFix" result="effect1_dropShadow_218_41" />
      <feBlend mode="normal" in="SourceGraphic" in2="effect1_dropShadow_218_41" result="shape" />
      <feGaussianBlur stdDeviation="1" result="effect2_foregroundBlur_218_41" />
    </filter>
    <filter id="filter1_bf_218_41" x="1183" y="185" width="514.473" height="150.978" filterUnits="userSpaceOnUse" color-interpolation-filters="sRGB">
      <feFlood flood-opacity="0" result="BackgroundImageFix" />
      <feGaussianBlur in="BackgroundImage" stdDeviation="2" />
      <feComposite in2="SourceAlpha" operator="in" result="effect1_backgroundBlur_218_41" />
      <feBlend mode="normal" in="SourceGraphic" in2="effect1_backgroundBlur_218_41" result="shape" />
      <feGaussianBlur stdDeviation="2" result="effect2_foregroundBlur_218_41" />
    </filter>
    <filter id="filter2_bf_218_41" x="848" y="360" width="495.041" height="156" filterUnits="userSpaceOnUse" color-interpolation-filters="sRGB">
      <feFlood flood-opacity="0" result="BackgroundImageFix" />
      <feGaussianBlur in="BackgroundImage" stdDeviation="2" />
      <feComposite in2="SourceAlpha" operator="in" result="effect1_backgroundBlur_218_41" />
      <feBlend mode="normal" in="SourceGraphic" in2="effect1_backgroundBlur_218_41" result="shape" />
      <feGaussianBlur stdDeviation="2" result="effect2_foregroundBlur_218_41" />
    </filter>
    <filter id="filter3_bf_218_41" x="88.6226" y="404" width="531.238" height="104.697" filterUnits="userSpaceOnUse" color-interpolation-filters="sRGB">
      <feFlood flood-opacity="0" result="BackgroundImageFix" />
      <feGaussianBlur in="BackgroundImage" stdDeviation="2" />
      <feComposite in2="SourceAlpha" operator="in" result="effect1_backgroundBlur_218_41" />
      <feBlend mode="normal" in="SourceGraphic" in2="effect1_backgroundBlur_218_41" result="shape" />
      <feGaussianBlur stdDeviation="2" result="effect2_foregroundBlur_218_41" />
    </filter>
    <linearGradient id="paint0_linear_218_41" x1="720" y1="0" x2="720" y2="1024" gradientUnits="userSpaceOnUse">
      <stop stop-color="#F6B152" />
      <stop offset="0.3125" stop-color="#F8C58A" />
    </linearGradient>
    <clipPath id="clip0_218_41">
      <rect width="1440" height="1024" fill="white" />
    </clipPath>
  </defs>
</svg>